<svg width="254" height="33" viewBox="0 0 254 33" fill="none" xmlns="http://www.w3.org/2000/svg">
<rect y="0.71875" width="31.4417" height="31.4417" rx="4.49167" fill="white"/>
<path d="M24.8926 14.607H24.1389V14.5681H15.717V18.3112H21.0055C20.2339 20.4901 18.1608 22.0543 15.717 22.0543C12.6164 22.0543 10.1024 19.5403 10.1024 16.4397C10.1024 13.339 12.6164 10.8251 15.717 10.8251C17.1483 10.8251 18.4504 11.365 19.4418 12.247L22.0886 9.60017C20.4174 8.04259 18.1818 7.08203 15.717 7.08203C10.5493 7.08203 6.35938 11.2719 6.35938 16.4397C6.35938 21.6074 10.5493 25.7973 15.717 25.7973C20.8848 25.7973 25.0747 21.6074 25.0747 16.4397C25.0747 15.8122 25.0101 15.1998 24.8926 14.607Z" fill="#FFC107"/>
<path d="M7.4375 12.0842L10.512 14.3389C11.3438 12.2793 13.3585 10.8251 15.7162 10.8251C17.1475 10.8251 18.4496 11.365 19.441 12.247L22.0878 9.60017C20.4165 8.04259 18.181 7.08203 15.7162 7.08203C12.1219 7.08203 9.0049 9.11124 7.4375 12.0842Z" fill="#FF3D00"/>
<path d="M15.7213 25.7968C18.1383 25.7968 20.3346 24.8718 21.9951 23.3675L19.0989 20.9168C18.1594 21.6284 16.9916 22.0537 15.7213 22.0537C13.2873 22.0537 11.2207 20.5018 10.4422 18.3359L7.39062 20.687C8.93931 23.7175 12.0844 25.7968 15.7213 25.7968Z" fill="#4CAF50"/>
<path d="M24.8983 14.6091H24.1445V14.5703H15.7227V18.3134H21.0111C20.6406 19.36 19.9673 20.2626 19.0989 20.9199L19.1003 20.919L21.9965 23.3698C21.7916 23.556 25.0803 21.1207 25.0803 16.4418C25.0803 15.8144 25.0157 15.202 24.8983 14.6091Z" fill="#1976D2"/>
<path d="M67.0854 18.7374H69.4979C69.4336 19.5913 69.1968 20.3487 68.7874 21.0096C68.378 21.6646 67.8077 22.1793 67.0767 22.5536C66.3456 22.9279 65.4595 23.115 64.4185 23.115C63.6173 23.115 62.895 22.9747 62.2516 22.6939C61.6141 22.4074 61.0673 22.0009 60.6111 21.4745C60.1608 20.9423 59.8157 20.3048 59.5759 19.5621C59.3361 18.8134 59.2162 17.9742 59.2162 17.0443V16.0705C59.2162 15.1406 59.3391 14.3013 59.5847 13.5527C59.8303 12.8041 60.1813 12.1666 60.6374 11.6402C61.0995 11.108 61.6522 10.6986 62.2955 10.412C62.9447 10.1255 63.6699 9.98218 64.4711 9.98218C65.5122 9.98218 66.3924 10.1752 67.1118 10.5612C67.8311 10.9413 68.3897 11.4648 68.7874 12.1315C69.1851 12.7982 69.4248 13.5644 69.5067 14.43H67.0942C67.0474 13.8919 66.9304 13.4357 66.7433 13.0614C66.562 12.6871 66.2871 12.4035 65.9187 12.2105C65.556 12.0116 65.0735 11.9122 64.4711 11.9122C64.0033 11.9122 63.5909 11.9999 63.2342 12.1754C62.8833 12.3508 62.5908 12.614 62.3569 12.9649C62.123 13.31 61.9475 13.7428 61.8305 14.2633C61.7136 14.778 61.6551 15.3745 61.6551 16.0529V17.0443C61.6551 17.6935 61.7077 18.2754 61.813 18.7901C61.9183 19.3047 62.082 19.7404 62.3043 20.0972C62.5265 20.454 62.8131 20.7259 63.164 20.9131C63.5149 21.1002 63.9331 21.1938 64.4185 21.1938C65.0092 21.1938 65.4888 21.1002 65.8572 20.9131C66.2315 20.7259 66.5152 20.451 66.7082 20.0884C66.9071 19.7258 67.0328 19.2755 67.0854 18.7374ZM71.7788 18.29V18.1058C71.7788 17.4098 71.8782 16.7694 72.0771 16.1845C72.2759 15.5938 72.5654 15.0821 72.9456 14.6493C73.3257 14.2165 73.7907 13.8802 74.3404 13.6404C74.8902 13.3948 75.516 13.272 76.2178 13.272C76.9313 13.272 77.563 13.3948 78.1127 13.6404C78.6683 13.8802 79.1362 14.2165 79.5164 14.6493C79.8965 15.0821 80.186 15.5938 80.3849 16.1845C80.5837 16.7694 80.6832 17.4098 80.6832 18.1058V18.29C80.6832 18.9801 80.5837 19.6205 80.3849 20.2112C80.186 20.7961 79.8965 21.3078 79.5164 21.7465C79.1362 22.1793 78.6713 22.5156 78.1215 22.7554C77.5717 22.9951 76.943 23.115 76.2354 23.115C75.5335 23.115 74.9048 22.9951 74.3492 22.7554C73.7936 22.5156 73.3257 22.1793 72.9456 21.7465C72.5654 21.3078 72.2759 20.7961 72.0771 20.2112C71.8782 19.6205 71.7788 18.9801 71.7788 18.29ZM74.0948 18.1058V18.29C74.0948 18.7053 74.1357 19.0942 74.2176 19.4568C74.2995 19.8194 74.4252 20.1381 74.5948 20.413C74.7644 20.6879 74.9838 20.9043 75.2528 21.0622C75.5277 21.2143 75.8552 21.2903 76.2354 21.2903C76.6097 21.2903 76.9313 21.2143 77.2004 21.0622C77.4694 20.9043 77.6887 20.6879 77.8583 20.413C78.0338 20.1381 78.1624 19.8194 78.2443 19.4568C78.3262 19.0942 78.3671 18.7053 78.3671 18.29V18.1058C78.3671 17.6964 78.3262 17.3133 78.2443 16.9565C78.1624 16.5939 78.0338 16.2752 77.8583 16.0003C77.6887 15.7196 77.4665 15.5003 77.1916 15.3423C76.9226 15.1786 76.598 15.0967 76.2178 15.0967C75.8435 15.0967 75.5218 15.1786 75.2528 15.3423C74.9838 15.5003 74.7644 15.7196 74.5948 16.0003C74.4252 16.2752 74.2995 16.5939 74.2176 16.9565C74.1357 17.3133 74.0948 17.6964 74.0948 18.1058ZM85.6397 15.4739V22.9396H83.3237V13.4474H85.4993L85.6397 15.4739ZM85.2712 17.8514H84.5869C84.5928 17.1612 84.6864 16.5354 84.8677 15.974C85.049 15.4125 85.3034 14.93 85.6309 14.5265C85.9643 14.1229 86.3591 13.813 86.8152 13.5966C87.2714 13.3802 87.7802 13.272 88.3417 13.272C88.7979 13.272 89.2102 13.3363 89.5787 13.465C89.9471 13.5936 90.2629 13.7983 90.5261 14.0791C90.7952 14.3598 90.9999 14.7283 91.1402 15.1844C91.2864 15.6348 91.3595 16.1904 91.3595 16.8513V22.9396H89.026V16.8337C89.026 16.4009 88.9616 16.0588 88.833 15.8073C88.7102 15.5558 88.5289 15.3774 88.2891 15.2722C88.0551 15.1669 87.7656 15.1143 87.4206 15.1143C87.0638 15.1143 86.7509 15.1874 86.4819 15.3336C86.2187 15.4739 85.9964 15.6699 85.8151 15.9214C85.6397 16.1728 85.5052 16.4623 85.4116 16.7899C85.318 17.1174 85.2712 17.4712 85.2712 17.8514ZM98.8953 13.4474V15.1143H93.4561V13.4474H98.8953ZM94.9124 11.1139H97.2372V20.2025C97.2372 20.4832 97.2752 20.6996 97.3513 20.8517C97.4273 21.0037 97.5413 21.1061 97.6934 21.1587C97.8455 21.2113 98.0268 21.2377 98.2373 21.2377C98.3894 21.2377 98.5297 21.2289 98.6584 21.2113C98.7871 21.1938 98.8953 21.1763 98.983 21.1587L98.9918 22.8957C98.7988 22.9601 98.5794 23.0127 98.3338 23.0536C98.094 23.0946 97.8221 23.115 97.5179 23.115C96.9974 23.115 96.5412 23.0273 96.1494 22.8519C95.7575 22.6706 95.4534 22.381 95.237 21.9833C95.0206 21.5798 94.9124 21.0476 94.9124 20.3867V11.1139ZM103.896 13.4474V22.9396H101.571V13.4474H103.896ZM101.413 10.9647C101.413 10.6197 101.53 10.3331 101.764 10.105C102.004 9.8769 102.325 9.76286 102.729 9.76286C103.132 9.76286 103.451 9.8769 103.685 10.105C103.925 10.3331 104.045 10.6197 104.045 10.9647C104.045 11.3039 103.925 11.5876 103.685 11.8157C103.451 12.0438 103.132 12.1578 102.729 12.1578C102.325 12.1578 102.004 12.0438 101.764 11.8157C101.53 11.5876 101.413 11.3039 101.413 10.9647ZM109.379 15.4739V22.9396H107.063V13.4474H109.238L109.379 15.4739ZM109.01 17.8514H108.326C108.332 17.1612 108.425 16.5354 108.607 15.974C108.788 15.4125 109.042 14.93 109.37 14.5265C109.703 14.1229 110.098 13.813 110.554 13.5966C111.01 13.3802 111.519 13.272 112.081 13.272C112.537 13.272 112.949 13.3363 113.318 13.465C113.686 13.5936 114.002 13.7983 114.265 14.0791C114.534 14.3598 114.739 14.7283 114.879 15.1844C115.025 15.6348 115.098 16.1904 115.098 16.8513V22.9396H112.765V16.8337C112.765 16.4009 112.701 16.0588 112.572 15.8073C112.449 15.5558 112.268 15.3774 112.028 15.2722C111.794 15.1669 111.504 15.1143 111.159 15.1143C110.803 15.1143 110.49 15.1874 110.221 15.3336C109.958 15.4739 109.735 15.6699 109.554 15.9214C109.379 16.1728 109.244 16.4623 109.15 16.7899C109.057 17.1174 109.01 17.4712 109.01 17.8514ZM123.792 20.685V13.4474H126.126V22.9396H123.933L123.792 20.685ZM124.09 18.7199L124.81 18.7023C124.81 19.3398 124.74 19.9276 124.599 20.4657C124.459 21.0037 124.24 21.4716 123.941 21.8693C123.649 22.2612 123.277 22.5682 122.827 22.7904C122.377 23.0068 121.845 23.115 121.23 23.115C120.763 23.115 120.336 23.0507 119.95 22.922C119.564 22.7875 119.23 22.5799 118.95 22.2992C118.675 22.0126 118.461 21.6471 118.309 21.2026C118.157 20.7522 118.081 20.2112 118.081 19.5796V13.4474H120.397V19.5972C120.397 19.913 120.432 20.1762 120.502 20.3867C120.578 20.5972 120.681 20.7698 120.809 20.9043C120.944 21.033 121.099 21.1265 121.274 21.185C121.456 21.2377 121.649 21.264 121.853 21.264C122.415 21.264 122.856 21.1529 123.178 20.9306C123.506 20.7025 123.74 20.3984 123.88 20.0182C124.02 19.6322 124.09 19.1995 124.09 18.7199ZM133.442 23.115C132.723 23.115 132.076 22.9981 131.503 22.7641C130.93 22.5302 130.442 22.2056 130.038 21.7903C129.641 21.3693 129.334 20.8809 129.117 20.3253C128.907 19.7638 128.801 19.1614 128.801 18.5181V18.1672C128.801 17.4361 128.907 16.7723 129.117 16.1758C129.328 15.5734 129.626 15.0558 130.012 14.623C130.398 14.1902 130.86 13.8568 131.398 13.6229C131.936 13.3889 132.53 13.272 133.179 13.272C133.852 13.272 134.445 13.386 134.96 13.6141C135.474 13.8364 135.904 14.1522 136.249 14.5616C136.594 14.971 136.855 15.4622 137.03 16.0354C137.206 16.6027 137.293 17.2314 137.293 17.9215V18.8953H129.854V17.2987H135.012V17.1232C135.001 16.7548 134.931 16.4185 134.802 16.1144C134.673 15.8044 134.474 15.5587 134.205 15.3774C133.936 15.1903 133.588 15.0967 133.161 15.0967C132.816 15.0967 132.515 15.1727 132.258 15.3248C132.006 15.471 131.796 15.6816 131.626 15.9564C131.462 16.2255 131.34 16.5471 131.258 16.9215C131.176 17.2958 131.135 17.711 131.135 18.1672V18.5181C131.135 18.9158 131.188 19.2843 131.293 19.6235C131.404 19.9627 131.565 20.258 131.775 20.5095C131.992 20.7552 132.249 20.9482 132.547 21.0885C132.851 21.223 133.196 21.2903 133.582 21.2903C134.068 21.2903 134.507 21.1967 134.898 21.0096C135.296 20.8166 135.641 20.5329 135.934 20.1586L137.1 21.3693C136.902 21.6617 136.632 21.9424 136.293 22.2114C135.96 22.4805 135.556 22.6998 135.083 22.8694C134.609 23.0332 134.062 23.115 133.442 23.115ZM148.636 20.492L151.18 10.1664H152.558L152.646 12.3421L149.926 22.9396H148.47L148.636 20.492ZM147.031 10.1664L149.119 20.4569V22.9396H147.531L144.636 10.1664H147.031ZM155.286 20.413L157.339 10.1664H159.743L156.848 22.9396H155.26L155.286 20.413ZM153.216 10.1664L155.76 20.5271L155.909 22.9396H154.453L151.742 12.3333L151.847 10.1664H153.216ZM164.55 13.4474V22.9396H162.225V13.4474H164.55ZM162.067 10.9647C162.067 10.6197 162.184 10.3331 162.418 10.105C162.658 9.8769 162.98 9.76286 163.383 9.76286C163.787 9.76286 164.106 9.8769 164.34 10.105C164.579 10.3331 164.699 10.6197 164.699 10.9647C164.699 11.3039 164.579 11.5876 164.34 11.8157C164.106 12.0438 163.787 12.1578 163.383 12.1578C162.98 12.1578 162.658 12.0438 162.418 11.8157C162.184 11.5876 162.067 11.3039 162.067 10.9647ZM172.253 13.4474V15.1143H166.813V13.4474H172.253ZM168.27 11.1139H170.594V20.2025C170.594 20.4832 170.632 20.6996 170.709 20.8517C170.785 21.0037 170.899 21.1061 171.051 21.1587C171.203 21.2113 171.384 21.2377 171.595 21.2377C171.747 21.2377 171.887 21.2289 172.016 21.2113C172.144 21.1938 172.253 21.1763 172.34 21.1587L172.349 22.8957C172.156 22.9601 171.937 23.0127 171.691 23.0536C171.451 23.0946 171.179 23.115 170.875 23.115C170.355 23.115 169.898 23.0273 169.507 22.8519C169.115 22.6706 168.811 22.381 168.594 21.9833C168.378 21.5798 168.27 21.0476 168.27 20.3867V11.1139ZM177.069 9.46458V22.9396H174.744V9.46458H177.069ZM176.7 17.8514H176.016C176.016 17.1905 176.104 16.5822 176.279 16.0266C176.455 15.471 176.703 14.9885 177.025 14.5791C177.346 14.1639 177.73 13.8422 178.174 13.6141C178.624 13.386 179.122 13.272 179.665 13.272C180.133 13.272 180.557 13.3392 180.937 13.4737C181.323 13.6024 181.654 13.81 181.929 14.0966C182.204 14.3832 182.414 14.7575 182.56 15.2195C182.713 15.6757 182.789 16.2313 182.789 16.8864V22.9396H180.455V16.8688C180.455 16.4302 180.391 16.0851 180.262 15.8336C180.133 15.5763 179.949 15.3921 179.709 15.2809C179.475 15.1698 179.186 15.1143 178.841 15.1143C178.466 15.1143 178.145 15.1874 177.876 15.3336C177.607 15.4739 177.385 15.6699 177.209 15.9214C177.039 16.1728 176.911 16.4623 176.823 16.7899C176.741 17.1174 176.7 17.4712 176.7 17.8514ZM201.448 16.3337V21.3078C201.261 21.5476 200.966 21.8079 200.562 22.0886C200.164 22.3694 199.644 22.6121 199 22.8168C198.357 23.0156 197.568 23.115 196.632 23.115C195.819 23.115 195.076 22.9805 194.404 22.7115C193.731 22.4366 193.152 22.036 192.666 21.5096C192.181 20.9833 191.807 20.3399 191.544 19.5796C191.28 18.8193 191.149 17.9508 191.149 16.9741V16.1319C191.149 15.1552 191.272 14.2867 191.517 13.5264C191.769 12.7661 192.126 12.1227 192.588 11.5964C193.055 11.07 193.614 10.6694 194.263 10.3945C194.918 10.1196 195.649 9.98218 196.456 9.98218C197.538 9.98218 198.427 10.1606 199.123 10.5173C199.825 10.8741 200.363 11.3654 200.737 11.9911C201.112 12.6111 201.346 13.3246 201.439 14.1317H199.088C199.024 13.6872 198.895 13.2983 198.702 12.9649C198.509 12.6257 198.234 12.3625 197.878 12.1754C197.527 11.9824 197.07 11.8859 196.509 11.8859C196.035 11.8859 195.617 11.9794 195.254 12.1666C194.892 12.3538 194.588 12.6257 194.342 12.9825C194.096 13.3392 193.909 13.7808 193.781 14.3072C193.658 14.8335 193.596 15.4359 193.596 16.1144V16.9741C193.596 17.6584 193.667 18.2666 193.807 18.7988C193.947 19.3252 194.149 19.7697 194.412 20.1323C194.681 20.4891 195.012 20.761 195.404 20.9482C195.801 21.1295 196.252 21.2201 196.755 21.2201C197.211 21.2201 197.588 21.1821 197.886 21.1061C198.19 21.0242 198.433 20.9277 198.614 20.8166C198.796 20.7054 198.936 20.5972 199.036 20.492V18.097H196.5V16.3337H201.448ZM204.141 18.29V18.1058C204.141 17.4098 204.241 16.7694 204.439 16.1845C204.638 15.5938 204.928 15.0821 205.308 14.6493C205.688 14.2165 206.153 13.8802 206.703 13.6404C207.253 13.3948 207.878 13.272 208.58 13.272C209.294 13.272 209.925 13.3948 210.475 13.6404C211.031 13.8802 211.499 14.2165 211.879 14.6493C212.259 15.0821 212.548 15.5938 212.747 16.1845C212.946 16.7694 213.046 17.4098 213.046 18.1058V18.29C213.046 18.9801 212.946 19.6205 212.747 20.2112C212.548 20.7961 212.259 21.3078 211.879 21.7465C211.499 22.1793 211.034 22.5156 210.484 22.7554C209.934 22.9951 209.305 23.115 208.598 23.115C207.896 23.115 207.267 22.9951 206.712 22.7554C206.156 22.5156 205.688 22.1793 205.308 21.7465C204.928 21.3078 204.638 20.7961 204.439 20.2112C204.241 19.6205 204.141 18.9801 204.141 18.29ZM206.457 18.1058V18.29C206.457 18.7053 206.498 19.0942 206.58 19.4568C206.662 19.8194 206.788 20.1381 206.957 20.413C207.127 20.6879 207.346 20.9043 207.615 21.0622C207.89 21.2143 208.218 21.2903 208.598 21.2903C208.972 21.2903 209.294 21.2143 209.563 21.0622C209.832 20.9043 210.051 20.6879 210.221 20.413C210.396 20.1381 210.525 19.8194 210.607 19.4568C210.689 19.0942 210.73 18.7053 210.73 18.29V18.1058C210.73 17.6964 210.689 17.3133 210.607 16.9565C210.525 16.5939 210.396 16.2752 210.221 16.0003C210.051 15.7196 209.829 15.5003 209.554 15.3423C209.285 15.1786 208.96 15.0967 208.58 15.0967C208.206 15.0967 207.884 15.1786 207.615 15.3423C207.346 15.5003 207.127 15.7196 206.957 16.0003C206.788 16.2752 206.662 16.5939 206.58 16.9565C206.498 17.3133 206.457 17.6964 206.457 18.1058ZM215.318 18.29V18.1058C215.318 17.4098 215.417 16.7694 215.616 16.1845C215.815 15.5938 216.104 15.0821 216.484 14.6493C216.865 14.2165 217.33 13.8802 217.879 13.6404C218.429 13.3948 219.055 13.272 219.757 13.272C220.47 13.272 221.102 13.3948 221.652 13.6404C222.207 13.8802 222.675 14.2165 223.055 14.6493C223.435 15.0821 223.725 15.5938 223.924 16.1845C224.123 16.7694 224.222 17.4098 224.222 18.1058V18.29C224.222 18.9801 224.123 19.6205 223.924 20.2112C223.725 20.7961 223.435 21.3078 223.055 21.7465C222.675 22.1793 222.21 22.5156 221.66 22.7554C221.111 22.9951 220.482 23.115 219.774 23.115C219.072 23.115 218.444 22.9951 217.888 22.7554C217.332 22.5156 216.865 22.1793 216.484 21.7465C216.104 21.3078 215.815 20.7961 215.616 20.2112C215.417 19.6205 215.318 18.9801 215.318 18.29ZM217.634 18.1058V18.29C217.634 18.7053 217.675 19.0942 217.756 19.4568C217.838 19.8194 217.964 20.1381 218.134 20.413C218.303 20.6879 218.523 20.9043 218.792 21.0622C219.067 21.2143 219.394 21.2903 219.774 21.2903C220.149 21.2903 220.47 21.2143 220.739 21.0622C221.008 20.9043 221.228 20.6879 221.397 20.413C221.573 20.1381 221.701 19.8194 221.783 19.4568C221.865 19.0942 221.906 18.7053 221.906 18.29V18.1058C221.906 17.6964 221.865 17.3133 221.783 16.9565C221.701 16.5939 221.573 16.2752 221.397 16.0003C221.228 15.7196 221.005 15.5003 220.73 15.3423C220.461 15.1786 220.137 15.0967 219.757 15.0967C219.382 15.0967 219.061 15.1786 218.792 15.3423C218.523 15.5003 218.303 15.7196 218.134 16.0003C217.964 16.2752 217.838 16.5939 217.756 16.9565C217.675 17.3133 217.634 17.6964 217.634 18.1058ZM232.942 13.4474H235.048V22.6501C235.048 23.5098 234.86 24.238 234.486 24.8345C234.118 25.4369 233.6 25.8931 232.933 26.2031C232.267 26.5189 231.492 26.6768 230.609 26.6768C230.228 26.6768 229.816 26.6242 229.372 26.5189C228.933 26.4136 228.509 26.2469 228.1 26.0188C227.696 25.7966 227.36 25.5071 227.091 25.1503L228.135 23.7818C228.45 24.1502 228.807 24.428 229.205 24.6152C229.603 24.8082 230.032 24.9047 230.494 24.9047C230.962 24.9047 231.36 24.817 231.688 24.6415C232.021 24.4719 232.275 24.2204 232.451 23.887C232.632 23.5595 232.723 23.156 232.723 22.6764V15.6143L232.942 13.4474ZM226.529 18.3076V18.1233C226.529 17.3981 226.617 16.7401 226.792 16.1494C226.968 15.5529 227.219 15.0412 227.547 14.6142C227.88 14.1873 228.281 13.8568 228.749 13.6229C229.222 13.3889 229.755 13.272 230.345 13.272C230.971 13.272 231.497 13.386 231.924 13.6141C232.357 13.8422 232.714 14.1668 232.995 14.5879C233.281 15.009 233.504 15.509 233.661 16.088C233.825 16.6612 233.951 17.2928 234.039 17.983V18.483C233.957 19.1556 233.825 19.7726 233.644 20.3341C233.468 20.8955 233.235 21.3868 232.942 21.8079C232.65 22.2231 232.287 22.5448 231.854 22.7729C231.421 23.001 230.913 23.115 230.328 23.115C229.743 23.115 229.217 22.9951 228.749 22.7554C228.281 22.5156 227.88 22.1793 227.547 21.7465C227.219 21.3137 226.968 20.8049 226.792 20.22C226.617 19.6352 226.529 18.9977 226.529 18.3076ZM228.845 18.1233V18.3076C228.845 18.7169 228.886 19.1 228.968 19.4568C229.05 19.8135 229.176 20.1294 229.345 20.4042C229.515 20.6733 229.728 20.8838 229.986 21.0359C230.243 21.1879 230.55 21.264 230.907 21.264C231.386 21.264 231.778 21.1646 232.082 20.9657C232.392 20.761 232.626 20.4832 232.784 20.1323C232.948 19.7755 233.053 19.3749 233.1 18.9304V17.5531C233.071 17.2022 233.006 16.8776 232.907 16.5793C232.813 16.281 232.682 16.0237 232.512 15.8073C232.343 15.5909 232.126 15.4213 231.863 15.2985C231.6 15.1757 231.287 15.1143 230.924 15.1143C230.573 15.1143 230.266 15.1932 230.003 15.3511C229.74 15.5032 229.524 15.7167 229.354 15.9915C229.184 16.2664 229.056 16.5852 228.968 16.9478C228.886 17.3104 228.845 17.7022 228.845 18.1233ZM240.592 9.46458V22.9396H238.267V9.46458H240.592ZM248.066 23.115C247.347 23.115 246.701 22.9981 246.127 22.7641C245.554 22.5302 245.066 22.2056 244.662 21.7903C244.265 21.3693 243.958 20.8809 243.741 20.3253C243.531 19.7638 243.425 19.1614 243.425 18.5181V18.1672C243.425 17.4361 243.531 16.7723 243.741 16.1758C243.952 15.5734 244.25 15.0558 244.636 14.623C245.022 14.1902 245.484 13.8568 246.022 13.6229C246.56 13.3889 247.154 13.272 247.803 13.272C248.476 13.272 249.069 13.386 249.584 13.6141C250.099 13.8364 250.528 14.1522 250.873 14.5616C251.219 14.971 251.479 15.4622 251.654 16.0354C251.83 16.6027 251.917 17.2314 251.917 17.9215V18.8953H244.478V17.2987H249.637V17.1232C249.625 16.7548 249.555 16.4185 249.426 16.1144C249.297 15.8044 249.098 15.5587 248.829 15.3774C248.56 15.1903 248.212 15.0967 247.785 15.0967C247.44 15.0967 247.139 15.1727 246.882 15.3248C246.63 15.471 246.42 15.6816 246.25 15.9564C246.086 16.2255 245.964 16.5471 245.882 16.9215C245.8 17.2958 245.759 17.711 245.759 18.1672V18.5181C245.759 18.9158 245.812 19.2843 245.917 19.6235C246.028 19.9627 246.189 20.258 246.399 20.5095C246.616 20.7552 246.873 20.9482 247.171 21.0885C247.475 21.223 247.821 21.2903 248.207 21.2903C248.692 21.2903 249.131 21.1967 249.522 21.0096C249.92 20.8166 250.265 20.5329 250.558 20.1586L251.724 21.3693C251.526 21.6617 251.257 21.9424 250.917 22.2114C250.584 22.4805 250.18 22.6998 249.707 22.8694C249.233 23.0332 248.686 23.115 248.066 23.115Z" fill="white"/>
</svg>
