<svg width="89" height="28" viewBox="0 0 89 28" fill="none" xmlns="http://www.w3.org/2000/svg">
<path d="M0.16 0.719999H4.984V20.952C4.984 21.648 5.152 22.188 5.488 22.572C5.824 22.956 6.304 23.148 6.928 23.148C7.216 23.148 7.528 23.1 7.864 23.004C8.224 22.908 8.56 22.788 8.872 22.644L9.52 26.316C8.872 26.628 8.116 26.868 7.252 27.036C6.388 27.204 5.608 27.288 4.912 27.288C3.4 27.288 2.224 26.892 1.384 26.1C0.568 25.284 0.16 24.132 0.16 22.644V0.719999ZM22.6814 27.18C20.8094 27.18 19.1054 26.82 17.5694 26.1C16.0574 25.356 14.7494 24.384 13.6454 23.184C12.5654 21.96 11.7254 20.568 11.1254 19.008C10.5254 17.448 10.2254 15.852 10.2254 14.22C10.2254 12.516 10.5374 10.884 11.1614 9.324C11.8094 7.764 12.6854 6.384 13.7894 5.184C14.9174 3.984 16.2494 3.036 17.7854 2.34C19.3214 1.62 20.9894 1.26 22.7894 1.26C24.6374 1.26 26.3174 1.644 27.8294 2.412C29.3654 3.156 30.6734 4.14 31.7534 5.364C32.8334 6.588 33.6734 7.98 34.2734 9.54C34.8734 11.1 35.1734 12.684 35.1734 14.292C35.1734 15.996 34.8614 17.628 34.2374 19.188C33.6134 20.724 32.7494 22.092 31.6454 23.292C30.5414 24.468 29.2214 25.416 27.6854 26.136C26.1494 26.832 24.4814 27.18 22.6814 27.18ZM15.2654 14.22C15.2654 15.324 15.4334 16.392 15.7694 17.424C16.1054 18.456 16.5854 19.368 17.2094 20.16C17.8574 20.952 18.6374 21.588 19.5494 22.068C20.4854 22.548 21.5414 22.788 22.7174 22.788C23.9174 22.788 24.9734 22.548 25.8854 22.068C26.8214 21.564 27.6014 20.904 28.2254 20.088C28.8734 19.272 29.3534 18.36 29.6654 17.352C30.0014 16.32 30.1694 15.276 30.1694 14.22C30.1694 13.116 29.9894 12.048 29.6294 11.016C29.2934 9.984 28.8014 9.072 28.1534 8.28C27.5294 7.488 26.7494 6.864 25.8134 6.408C24.9014 5.928 23.8694 5.688 22.7174 5.688C21.5174 5.688 20.4494 5.94 19.5134 6.444C18.5774 6.924 17.7974 7.572 17.1734 8.388C16.5494 9.18 16.0694 10.092 15.7334 11.124C15.4214 12.132 15.2654 13.164 15.2654 14.22ZM56.7323 24.12C54.6923 26.16 52.3163 27.18 49.6043 27.18C47.9243 27.18 46.3403 26.844 44.8523 26.172C43.3883 25.5 42.1043 24.576 41.0003 23.4C39.9203 22.224 39.0563 20.844 38.4083 19.26C37.7843 17.652 37.4723 15.924 37.4723 14.076C37.4723 12.324 37.7843 10.68 38.4083 9.144C39.0563 7.584 39.9323 6.228 41.0363 5.076C42.1643 3.9 43.4843 2.976 44.9963 2.304C46.5083 1.608 48.1523 1.26 49.9283 1.26C52.3283 1.26 54.3803 1.764 56.0843 2.772C57.8123 3.78 59.1083 5.136 59.9723 6.84L56.2643 9.576C55.6163 8.304 54.7043 7.332 53.5283 6.66C52.3763 5.988 51.1163 5.652 49.7483 5.652C48.6683 5.652 47.6723 5.88 46.7603 6.336C45.8723 6.792 45.1043 7.416 44.4563 8.208C43.8323 9 43.3403 9.912 42.9803 10.944C42.6443 11.976 42.4763 13.068 42.4763 14.22C42.4763 15.42 42.6683 16.548 43.0523 17.604C43.4363 18.636 43.9643 19.536 44.6363 20.304C45.3083 21.072 46.1003 21.684 47.0123 22.14C47.9483 22.572 48.9563 22.788 50.0363 22.788C52.5083 22.788 54.7403 21.624 56.7323 19.296V17.496H51.5843V13.86H60.8363V27H56.7323V24.12ZM75.9783 27.18C74.1063 27.18 72.4023 26.82 70.8663 26.1C69.3543 25.356 68.0463 24.384 66.9423 23.184C65.8623 21.96 65.0223 20.568 64.4223 19.008C63.8223 17.448 63.5223 15.852 63.5223 14.22C63.5223 12.516 63.8343 10.884 64.4583 9.324C65.1063 7.764 65.9823 6.384 67.0863 5.184C68.2143 3.984 69.5463 3.036 71.0823 2.34C72.6183 1.62 74.2863 1.26 76.0863 1.26C77.9343 1.26 79.6143 1.644 81.1263 2.412C82.6623 3.156 83.9703 4.14 85.0503 5.364C86.1303 6.588 86.9703 7.98 87.5703 9.54C88.1703 11.1 88.4703 12.684 88.4703 14.292C88.4703 15.996 88.1583 17.628 87.5343 19.188C86.9103 20.724 86.0463 22.092 84.9423 23.292C83.8383 24.468 82.5183 25.416 80.9823 26.136C79.4463 26.832 77.7783 27.18 75.9783 27.18ZM68.5623 14.22C68.5623 15.324 68.7303 16.392 69.0663 17.424C69.4023 18.456 69.8823 19.368 70.5063 20.16C71.1543 20.952 71.9343 21.588 72.8463 22.068C73.7823 22.548 74.8383 22.788 76.0143 22.788C77.2143 22.788 78.2703 22.548 79.1823 22.068C80.1183 21.564 80.8983 20.904 81.5223 20.088C82.1703 19.272 82.6503 18.36 82.9623 17.352C83.2983 16.32 83.4663 15.276 83.4663 14.22C83.4663 13.116 83.2863 12.048 82.9263 11.016C82.5903 9.984 82.0983 9.072 81.4503 8.28C80.8263 7.488 80.0463 6.864 79.1103 6.408C78.1983 5.928 77.1663 5.688 76.0143 5.688C74.8143 5.688 73.7463 5.94 72.8103 6.444C71.8743 6.924 71.0943 7.572 70.4703 8.388C69.8463 9.18 69.3663 10.092 69.0303 11.124C68.7183 12.132 68.5623 13.164 68.5623 14.22Z" fill="white"/>
</svg>
